<svg xmlns="http://www.w3.org/2000/svg" viewBox="0 0 720 360" role="img" aria-label="服饰">
  <defs>
    <linearGradient id="bg" x1="0" x2="1" y1="0" y2="1">
      <stop offset="0" stop-color="#fff9fd"/>
      <stop offset=".58" stop-color="#f2e8f7"/>
      <stop offset="1" stop-color="#e5d9ef"/>
    </linearGradient>
    <linearGradient id="fabric" x1="0" x2="1" y1="0" y2="1">
      <stop offset="0" stop-color="#2b7dad"/>
      <stop offset="1" stop-color="#174c72"/>
    </linearGradient>
    <filter id="shadow" x="-20%" y="-20%" width="140%" height="150%">
      <feDropShadow dx="0" dy="18" stdDeviation="16" flood-color="#18273d" flood-opacity=".2"/>
    </filter>
  </defs>
  <rect width="720" height="360" rx="18" fill="url(#bg)"/>
  <path d="M0 252 C112 192 226 302 360 222 C476 154 566 214 720 130 L720 360 L0 360 Z" fill="#eadff1"/>
  <circle cx="118" cy="78" r="46" fill="#ffffff" opacity=".55"/>
  <circle cx="596" cy="84" r="58" fill="#f6c15b" opacity=".22"/>
  <g filter="url(#shadow)">
    <path d="M292 74 L226 106 L166 194 L224 232 L258 180 L258 296 L466 296 L466 180 L500 232 L558 194 L498 106 L432 74 C404 118 320 118 292 74 Z" fill="url(#fabric)"/>
    <path d="M292 74 C316 140 408 140 432 74" fill="none" stroke="#ffffff" stroke-width="18" stroke-linecap="round"/>
    <path d="M286 130 L286 284 M438 130 L438 284" stroke="#ffffff" stroke-width="8" stroke-linecap="round" opacity=".26"/>
  </g>
  <path d="M198 112 L166 130 M526 112 L558 130" stroke="#c8b7d7" stroke-width="10" stroke-linecap="round"/>
</svg>
