<svg xmlns="http://www.w3.org/2000/svg" viewBox="0 0 720 360" role="img" aria-label="电子产品">
  <defs>
    <linearGradient id="bg" x1="0" x2="1" y1="0" y2="1">
      <stop offset="0" stop-color="#f8fcff"/>
      <stop offset="0.54" stop-color="#e3f2fb"/>
      <stop offset="1" stop-color="#d7e8f3"/>
    </linearGradient>
    <linearGradient id="screen" x1="0" x2="1" y1="0" y2="1">
      <stop offset="0" stop-color="#ffffff"/>
      <stop offset="1" stop-color="#d9edf8"/>
    </linearGradient>
    <filter id="shadow" x="-20%" y="-20%" width="140%" height="150%">
      <feDropShadow dx="0" dy="18" stdDeviation="18" flood-color="#18324b" flood-opacity=".18"/>
    </filter>
  </defs>
  <rect width="720" height="360" rx="18" fill="url(#bg)"/>
  <path d="M0 282 C106 236 184 316 312 258 C440 198 508 252 720 168 L720 360 L0 360 Z" fill="#cfe5f1" opacity=".85"/>
  <circle cx="616" cy="78" r="72" fill="#ffffff" opacity=".55"/>
  <circle cx="96" cy="76" r="44" fill="#0f8f7a" opacity=".16"/>
  <g filter="url(#shadow)">
    <rect x="142" y="70" width="324" height="194" rx="22" fill="#17324a"/>
    <rect x="166" y="96" width="276" height="132" rx="12" fill="url(#screen)"/>
    <path d="M194 196 C246 148 286 168 330 128 C364 98 396 112 424 88 L424 228 L194 228 Z" fill="#b8d9eb" opacity=".85"/>
    <rect x="258" y="268" width="94" height="18" rx="9" fill="#17324a"/>
    <rect x="222" y="286" width="166" height="16" rx="8" fill="#1d5f8f"/>
  </g>
  <g filter="url(#shadow)">
    <rect x="488" y="104" width="92" height="154" rx="20" fill="#1d5f8f"/>
    <rect x="504" y="124" width="60" height="102" rx="10" fill="#f8fbfd"/>
    <circle cx="534" cy="238" r="7" fill="#f8fbfd"/>
  </g>
  <path d="M208 126 L244 126 M208 148 L304 148 M208 170 L276 170" stroke="#1d5f8f" stroke-width="10" stroke-linecap="round" opacity=".72"/>
</svg>
