<svg xmlns="http://www.w3.org/2000/svg" viewBox="0 0 720 360" role="img" aria-label="美妆">
  <defs>
    <linearGradient id="bg" x1="0" x2="1" y1="0" y2="1">
      <stop offset="0" stop-color="#fff7f8"/>
      <stop offset=".58" stop-color="#ffe8ee"/>
      <stop offset="1" stop-color="#efd0d8"/>
    </linearGradient>
    <linearGradient id="bottle" x1="0" x2="0" y1="0" y2="1">
      <stop offset="0" stop-color="#ffffff"/>
      <stop offset="1" stop-color="#ead3cf"/>
    </linearGradient>
    <filter id="shadow" x="-20%" y="-20%" width="140%" height="150%">
      <feDropShadow dx="0" dy="18" stdDeviation="16" flood-color="#5a2731" flood-opacity=".18"/>
    </filter>
  </defs>
  <rect width="720" height="360" rx="18" fill="url(#bg)"/>
  <path d="M0 260 C118 214 204 302 328 232 C452 162 560 218 720 126 L720 360 L0 360 Z" fill="#efd7dd"/>
  <circle cx="126" cy="82" r="56" fill="#ffffff" opacity=".46"/>
  <circle cx="600" cy="90" r="68" fill="#f6c15b" opacity=".22"/>
  <g filter="url(#shadow)">
    <rect x="210" y="128" width="112" height="172" rx="26" fill="url(#bottle)"/>
    <rect x="236" y="72" width="60" height="68" rx="16" fill="#1d5f8f"/>
    <rect x="230" y="182" width="72" height="54" rx="12" fill="#fff" opacity=".72"/>
    <path d="M248 210 L284 210" stroke="#b83a2f" stroke-width="10" stroke-linecap="round"/>
  </g>
  <g filter="url(#shadow)">
    <rect x="390" y="92" width="76" height="208" rx="28" fill="#b83a2f"/>
    <rect x="404" y="56" width="48" height="50" rx="14" fill="#17324a"/>
    <rect x="404" y="142" width="48" height="104" rx="18" fill="#db6b61" opacity=".7"/>
  </g>
  <path d="M486 122 C522 100 548 112 564 144" fill="none" stroke="#fff" stroke-width="12" stroke-linecap="round" opacity=".72"/>
</svg>
